<?xml version="1.0" encoding="utf-8"?>
<!-- Generator: Adobe Illustrator 23.0.1, SVG Export Plug-In . SVG Version: 6.00 Build 0)  -->
<svg version="1.1" id="Layer_1" xmlns="http://www.w3.org/2000/svg" xmlns:xlink="http://www.w3.org/1999/xlink" x="0px" y="0px"
	 viewBox="0 0 205.3 263.5" style="enable-background:new 0 0 205.3 263.5;" xml:space="preserve">
<style type="text/css">
	.st0{fill:url(#SVGID_1_);}
	.st1{fill:#FFFFFF;}
</style>
<linearGradient id="SVGID_1_" gradientUnits="userSpaceOnUse" x1="-209.2588" y1="406.1261" x2="189.7403" y2="55.1265">
	<stop  offset="0" style="stop-color:#A6164C"/>
	<stop  offset="0.5136" style="stop-color:#DA2128"/>
	<stop  offset="1" style="stop-color:#FFCB05"/>
</linearGradient>
<rect class="st0" width="205.3" height="263.5"/>
<g>
	<path class="st1" d="M139.5,230.4h1.5c1,0,1.7,0.1,2.2,0.2c0.8,0.1,1.4,0.5,2,0.9c1.2,1,1.8,2.2,1.8,3.7c0,1.5-0.6,2.8-1.8,3.8
		c-0.6,0.5-1.3,0.8-2,0.9c-0.5,0.1-1.2,0.2-2.2,0.2h-1.5V230.4z M141.6,241.1c1,0,1.9-0.1,2.5-0.3c0.8-0.2,1.6-0.6,2.2-1.2
		c1.3-1.2,1.9-2.6,1.9-4.4c0-0.8-0.2-1.7-0.6-2.5c-0.4-0.8-0.9-1.5-1.6-2c-1.1-0.9-2.7-1.4-4.6-1.4h-3.2v11.8H141.6z M130,241.1
		v-10.7h1.9c1.2,0,2.1,0.2,2.7,0.6c0.7,0.5,1.1,1.2,1.1,2.1c0,1.1-0.5,1.9-1.5,2.4c-0.5,0.2-1.3,0.3-2.6,0.3h-0.4l4,5.3h1.5
		l-3.3-4.4c1,0,1.8-0.4,2.4-1.1c0.7-0.7,1-1.5,1-2.5c0-1.5-0.6-2.6-1.8-3.3c-0.7-0.4-1.8-0.6-3.3-0.6h-2.8v11.8H130z M121.6,230.7
		l2.3,5.4h-4.5L121.6,230.7z M117.2,241.1l1.7-3.9h5.5l1.7,3.9h1.3l-5-11.8H121l-5.1,11.8H117.2z M113,241.1l4.9-11.8h-1.3
		l-4.2,10.3l-4.1-10.3H107l4.9,11.8H113z M105.7,241.1V240h-5.2v-4.3h5.1v-1.1h-5.1v-4.2h5.2v-1.1h-6.4v11.8H105.7z M97.6,241.1V240
		h-4.9v-10.7h-1.2v11.8H97.6z M81.5,236.5c0,1.5,0.3,2.7,0.9,3.4c0.8,0.9,1.8,1.4,3.1,1.4c1.3,0,2.4-0.5,3.1-1.5
		c0.6-0.8,0.9-1.9,0.9-3.3v-7.1h-1.2v7.1c0,1.2-0.2,2-0.7,2.6c-0.5,0.7-1.2,1.1-2.2,1.1c-1,0-1.8-0.4-2.3-1.2
		c-0.4-0.6-0.5-1.4-0.5-2.5v-7.1h-1.2V236.5z M70.3,238.7c-1-1-1.5-2.1-1.5-3.5c0-1.4,0.5-2.6,1.5-3.5c1-1,2.2-1.5,3.6-1.5
		c1.4,0,2.5,0.5,3.5,1.4c1,1,1.5,2.1,1.5,3.5c0,1.4-0.5,2.6-1.5,3.5c-1,1-2.2,1.5-3.6,1.5C72.5,240.2,71.3,239.7,70.3,238.7
		 M69.4,230.9c-1.2,1.2-1.8,2.6-1.8,4.3c0,1.7,0.6,3.1,1.9,4.3c1.2,1.2,2.7,1.8,4.3,1.8c1.7,0,3.2-0.6,4.4-1.8
		c1.2-1.2,1.8-2.6,1.8-4.3c0-1.7-0.6-3.1-1.9-4.3s-2.7-1.8-4.4-1.8C72.1,229.1,70.7,229.7,69.4,230.9 M60.3,230.4h1.4
		c1,0,1.8,0.1,2.1,0.4c0.6,0.4,0.9,0.9,0.9,1.6c0,0.3-0.1,0.6-0.3,1c-0.2,0.3-0.4,0.5-0.7,0.7c-0.4,0.2-1.2,0.4-2.2,0.4h-1.3V230.4z
		 M60.3,235.4h1.2c1.1,0,1.9,0.1,2.4,0.2c1,0.3,1.5,1,1.5,2.1c0,0.4-0.1,0.7-0.3,1.1c-0.2,0.4-0.5,0.6-0.8,0.8
		c-0.5,0.2-1.3,0.3-2.5,0.3h-1.4V235.4z M61.9,241.1c0.8,0,1.3,0,1.7-0.1c0.6-0.1,1.1-0.3,1.5-0.6c0.4-0.3,0.8-0.7,1.1-1.2
		c0.3-0.5,0.4-1,0.4-1.5c0-1.4-0.6-2.4-1.9-3c0.9-0.6,1.3-1.4,1.3-2.4c0-1.1-0.5-1.9-1.4-2.5c-0.6-0.4-1.5-0.6-2.7-0.6h-2.8v11.8
		H61.9z"/>
	<polygon class="st1" points="81.3,92.6 81.3,165 89.6,165 89.6,84 	"/>
	<polygon class="st1" points="93.4,148.4 101.8,148.4 101.8,46.7 93.4,37.7 	"/>
	<g>
		<polygon class="st1" points="117.7,158.5 126.1,158.5 126.1,78.1 117.7,69 		"/>
	</g>
	<polygon class="st1" points="105.6,125.4 113.9,117.3 113.9,25.4 105.6,16.3 	"/>
	<path class="st1" d="M79,200.6c0,2.7-0.5,5.2-1.6,7.6c-1.1,2.4-2.5,4.4-4.3,6.2c-1.8,1.8-3.9,3.2-6.2,4.2c-2.4,1-4.9,1.5-7.5,1.5
		s-5.1-0.5-7.5-1.5c-2.4-1-4.4-2.4-6.2-4.1c-1.8-1.7-3.2-3.8-4.3-6.1c-1.1-2.3-1.6-4.8-1.6-7.5c0-2.7,0.5-5.2,1.5-7.7
		s2.4-4.5,4.2-6.3c1.8-1.8,3.8-3.2,6.2-4.3c2.4-1.1,4.9-1.6,7.7-1.6c2.7,0,5.2,0.5,7.6,1.5c2.4,1,4.5,2.4,6.2,4.2
		c1.8,1.8,3.2,3.9,4.2,6.2C78.4,195.4,79,197.9,79,200.6 M81.6,209.8c1.3-2.9,2-6,2-9.2c0-3.3-0.7-6.4-2-9.3
		c-1.3-2.9-3.1-5.4-5.3-7.5c-2.2-2.1-4.8-3.8-7.7-5c-2.9-1.2-6-1.8-9.3-1.8c-3.3,0-6.4,0.6-9.4,1.9c-2.9,1.2-5.5,2.9-7.7,5.1
		c-2.2,2.1-3.9,4.7-5.2,7.6c-1.3,2.9-1.9,6-1.9,9.4c0,3.2,0.7,6.3,2,9.1c1.3,2.9,3.1,5.3,5.3,7.4c2.2,2.1,4.8,3.8,7.7,5
		c2.9,1.2,5.9,1.8,9.1,1.8c3.3,0,6.4-0.6,9.3-1.8c2.9-1.2,5.5-2.9,7.7-5S80.3,212.7,81.6,209.8 M115.3,197.5c1-2,1.5-4.1,1.5-6.5
		c0-2.4-0.5-4.5-1.5-6.5c-1-2-2.5-3.6-4.4-4.9c-1.8-1.2-3.8-2-5.9-2.3c-2.1-0.3-4.2-0.5-6.4-0.5H85.4v47.5h4.8v-19.2v-4.2v-19.8h8.1
		c1.5,0,2.9,0,4.2,0.1c1.3,0.1,2.7,0.5,4,1.2c1.8,0.8,3.1,2,4.1,3.4c0.9,1.4,1.4,3.2,1.4,5.2c0,2-0.5,3.7-1.4,5.2
		c-0.9,1.5-2.3,2.6-4.1,3.5c-1.3,0.7-2.7,1.1-4,1.1c-1.3,0.1-2.7,0.1-4.2,0.1h-4.9v4.2h5.2c2.1,0,4.3-0.1,6.4-0.4
		c2.1-0.3,4.1-1.1,5.9-2.3C112.8,201.1,114.3,199.5,115.3,197.5 M137.8,224.2h4.7v-47.2h-6.4l-33,47.2h5.8l28-40.8h0.8V224.2z
		 M147.8,224.2h24.3V220h-19.7v-43.1h-4.7V224.2z"/>
</g>
</svg>
